<svg xmlns="http://www.w3.org/2000/svg" version="1.1" xmlns:xlink="http://www.w3.org/1999/xlink" xmlns:svgjs="http://svgjs.dev/svgjs" width="1500" height="507" viewBox="0 0 1500 507"><g transform="matrix(1,0,0,1,-0.9090909090909918,-0.565322497967145)"><svg viewBox="0 0 396 134" data-background-color="#000000" preserveAspectRatio="xMidYMid meet" height="507" width="1500" xmlns="http://www.w3.org/2000/svg" xmlns:xlink="http://www.w3.org/1999/xlink"><g id="tight-bounds" transform="matrix(1,0,0,1,0.2400000000000091,0.1494146247092658)"><svg viewBox="0 0 395.52 133.70117075058147" height="133.70117075058147" width="395.52"><g><svg viewBox="0 0 670.5115902890466 226.65904283849045" height="133.70117075058147" width="395.52"><g transform="matrix(1,0,0,1,274.9915902890466,62.146271691873366)"><svg viewBox="0 0 395.52 102.36649945474372" height="102.36649945474372" width="395.52"><g id="textblocktransform"><svg viewBox="0 0 395.52 102.36649945474372" height="102.36649945474372" width="395.52" id="textblock"><g><svg viewBox="0 0 395.52 102.36649945474372" height="102.36649945474372" width="395.52"><g transform="matrix(1,0,0,1,0,0)"><svg width="395.52" viewBox="2.25 -35 137.54 35.6" height="102.36649945474372" data-palette-color="#ffffff"><g class="wordmark-text-0" data-fill-palette-color="primary" id="text-0"><path d="M14.85-35Q17.5-35 19.53-34.08 21.55-33.15 23.55-31.25L23.55-31.25 21.05-28.7Q19.45-30.1 18.07-30.7 16.7-31.3 14.85-31.3L14.85-31.3Q11.4-31.3 9.22-28.1 7.05-24.9 7.05-17.25L7.05-17.25Q7.05-11.9 7.88-8.83 8.7-5.75 10.33-4.45 11.95-3.15 14.45-3.15L14.45-3.15Q17.15-3.15 19.4-4.65L19.4-4.65 19.4-15.35 14.7-15.35 14.2-19.05 23.8-19.05 23.8-2.45Q19.4 0.6 14.4 0.6L14.4 0.6Q2.25 0.6 2.25-17.25L2.25-17.25Q2.25-23.1 3.95-27.1 5.65-31.1 8.5-33.05 11.35-35 14.85-35L14.85-35ZM45.25-5.6Q45.25-4.2 45.65-3.53 46.05-2.85 46.95-2.45L46.95-2.45 46 0.6Q44.15 0.3 43.07-0.58 42-1.45 41.55-3.2L41.55-3.2Q39.4 0.6 35.25 0.6L35.25 0.6Q32 0.6 30.07-1.58 28.15-3.75 28.15-7.35L28.15-7.35Q28.15-11.55 30.75-13.78 33.35-16 38.3-16L38.3-16 40.9-16 40.9-18.4Q40.9-21 39.87-22.2 38.85-23.4 36.7-23.4L36.7-23.4Q34.15-23.4 30.75-22.05L30.75-22.05 29.65-25.15Q33.7-26.9 37.25-26.9L37.25-26.9Q41.3-26.9 43.27-24.73 45.25-22.55 45.25-18.6L45.25-18.6 45.25-5.6ZM36.15-2.7Q39.25-2.7 40.9-6.9L40.9-6.9 40.9-13.05 38.8-13.05Q35.65-13.05 34.17-11.7 32.7-10.35 32.7-7.55L32.7-7.55Q32.7-5.15 33.6-3.93 34.5-2.7 36.15-2.7L36.15-2.7ZM74.8-26.9Q77.45-26.9 79.05-24.83 80.65-22.75 80.65-19.35L80.65-19.35 80.65 0 76.35 0 76.35-18.8Q76.35-21.3 75.67-22.4 75-23.5 73.7-23.5L73.7-23.5Q71.05-23.5 68.8-18.8L68.8-18.8 68.8 0 64.5 0 64.5-18.8Q64.5-23.5 61.85-23.5L61.85-23.5Q60.45-23.5 59.17-22.25 57.9-21 56.9-18.8L56.9-18.8 56.9 0 52.6 0 52.6-26.35 56.4-26.35 56.7-22.55Q59.2-26.9 62.95-26.9L62.95-26.9Q64.95-26.9 66.32-25.68 67.7-24.45 68.3-22.2L68.3-22.2Q71-26.9 74.8-26.9L74.8-26.9ZM109.94-26.9Q112.59-26.9 114.19-24.83 115.79-22.75 115.79-19.35L115.79-19.35 115.79 0 111.49 0 111.49-18.8Q111.49-21.3 110.82-22.4 110.14-23.5 108.84-23.5L108.84-23.5Q106.19-23.5 103.94-18.8L103.94-18.8 103.94 0 99.64 0 99.64-18.8Q99.64-23.5 96.99-23.5L96.99-23.5Q95.59-23.5 94.32-22.25 93.04-21 92.04-18.8L92.04-18.8 92.04 0 87.74 0 87.74-26.35 91.54-26.35 91.84-22.55Q94.34-26.9 98.09-26.9L98.09-26.9Q100.09-26.9 101.47-25.68 102.84-24.45 103.44-22.2L103.44-22.2Q106.14-26.9 109.94-26.9L109.94-26.9ZM138.09-5.6Q138.09-4.2 138.49-3.53 138.89-2.85 139.79-2.45L139.79-2.45 138.84 0.6Q136.99 0.3 135.92-0.58 134.84-1.45 134.39-3.2L134.39-3.2Q132.24 0.6 128.09 0.6L128.09 0.6Q124.84 0.6 122.92-1.58 120.99-3.75 120.99-7.35L120.99-7.35Q120.99-11.55 123.59-13.78 126.19-16 131.14-16L131.14-16 133.74-16 133.74-18.4Q133.74-21 132.72-22.2 131.69-23.4 129.54-23.4L129.54-23.4Q126.99-23.4 123.59-22.05L123.59-22.05 122.49-25.15Q126.54-26.9 130.09-26.9L130.09-26.9Q134.14-26.9 136.12-24.73 138.09-22.55 138.09-18.6L138.09-18.6 138.09-5.6ZM128.99-2.7Q132.09-2.7 133.74-6.9L133.74-6.9 133.74-13.05 131.64-13.05Q128.49-13.05 127.02-11.7 125.54-10.35 125.54-7.55L125.54-7.55Q125.54-5.15 126.44-3.93 127.34-2.7 128.99-2.7L128.99-2.7Z" fill="#ffffff" data-fill-palette-color="primary"></path></g></svg></g></svg></g></svg></g></svg></g><g><svg viewBox="0 0 226.65904283849045 226.65904283849045" height="226.65904283849045" width="226.65904283849045"><g><svg></svg></g><g id="icon-0"><svg viewBox="0 0 226.65904283849045 226.65904283849045" height="226.65904283849045" width="226.65904283849045"><g><path d="M0 113.33c0-62.59 50.739-113.33 113.33-113.33 62.59 0 113.33 50.739 113.329 113.33 0 62.59-50.739 113.33-113.329 113.329-62.59 0-113.33-50.739-113.33-113.329zM113.33 217.428c57.492 0 104.098-46.606 104.098-104.098 0-57.492-46.606-104.098-104.098-104.098-57.492 0-104.098 46.606-104.098 104.098 0 57.492 46.606 104.098 104.098 104.098z" data-fill-palette-color="accent" fill="#ffffff" stroke="transparent"></path></g><g transform="matrix(1,0,0,1,73.17083711066383,48.36306988697635)"><svg viewBox="0 0 80.3173686171628 129.93290306453775" height="129.93290306453775" width="80.3173686171628"><g><svg xmlns="http://www.w3.org/2000/svg" xmlns:xlink="http://www.w3.org/1999/xlink" version="1.1" x="0" y="0" viewBox="30.570975056689345 19.461897075889475 38.92902494331065 62.97717805554813" enable-background="new 0 0 100 100" xml:space="preserve" height="129.93290306453775" width="80.3173686171628" class="icon-cg-0" data-fill-palette-color="accent" id="cg-0"><path fill="#ffffff" d="M43.9 22.8c-2.1-3.3-5.8-3.6-7.3-3.2-6.8 2-6 14.2-6 14.2h2c0 0 0.5-8.5 4.7-8.2 2.8 0.2 5.8 1.7 8 13.8 0.6 3.2 3.5 20 3.5 20-5.6 14.1-5.9 16.2-5.5 19.2 0.5 3.5 3.2 3.8 3.2 3.8s4.7 1.2 5-9.7c0.4-11.8-0.3-7 0-13.8l18-38.8h-7.7l-11 33.7C50.8 53.8 48 29.1 43.9 22.8z" data-fill-palette-color="accent"></path></svg></g></svg></g></svg></g></svg></g></svg></g><defs></defs></svg><rect width="395.52" height="133.70117075058147" fill="none" stroke="none" visibility="hidden"></rect></g></svg></g></svg>